<mxfile host="app.diagrams.net" modified="2022-03-26T05:36:11.333Z" agent="5.0 (Windows)" etag="9GGbD1hTxM5pin4ysq2Y" version="16.5.6" type="github">
  <diagram id="fd4n77I02KMqg5OLKuqp" name="Page-1">
    <mxGraphModel dx="1673" dy="1926" grid="1" gridSize="10" guides="1" tooltips="1" connect="1" arrows="1" fold="1" page="1" pageScale="1" pageWidth="1600" pageHeight="900" math="0" shadow="0">
      <root>
        <mxCell id="0" />
        <mxCell id="1" parent="0" />
        <mxCell id="MphkFnUnFCBE37njWN6I-1" value="customer" style="rounded=0;html=1;" parent="1" vertex="1">
          <mxGeometry x="720" y="140" width="80" height="40" as="geometry" />
        </mxCell>
        <mxCell id="MphkFnUnFCBE37njWN6I-2" value="id" style="ellipse;html=1;fontStyle=4" parent="1" vertex="1">
          <mxGeometry x="760" y="60" width="80" height="40" as="geometry" />
        </mxCell>
        <mxCell id="MphkFnUnFCBE37njWN6I-3" value="email" style="ellipse;html=1;" parent="1" vertex="1">
          <mxGeometry x="680" y="60" width="80" height="40" as="geometry" />
        </mxCell>
        <mxCell id="MphkFnUnFCBE37njWN6I-4" value="password" style="ellipse;html=1;" parent="1" vertex="1">
          <mxGeometry x="600" y="60" width="80" height="40" as="geometry" />
        </mxCell>
        <mxCell id="MphkFnUnFCBE37njWN6I-5" value="name" style="ellipse;html=1;" parent="1" vertex="1">
          <mxGeometry x="840" y="60" width="80" height="40" as="geometry" />
        </mxCell>
        <mxCell id="MphkFnUnFCBE37njWN6I-6" value="&lt;div&gt;customer_&lt;/div&gt;&lt;div&gt;address&lt;/div&gt;" style="rounded=0;html=1;" parent="1" vertex="1">
          <mxGeometry x="1190" y="140" width="80" height="40" as="geometry" />
        </mxCell>
        <mxCell id="MphkFnUnFCBE37njWN6I-7" value="" style="endArrow=none;html=1;rounded=0;" parent="1" source="MphkFnUnFCBE37njWN6I-4" target="MphkFnUnFCBE37njWN6I-1" edge="1">
          <mxGeometry width="50" height="50" relative="1" as="geometry">
            <mxPoint x="960" y="310" as="sourcePoint" />
            <mxPoint x="1010" y="260" as="targetPoint" />
          </mxGeometry>
        </mxCell>
        <mxCell id="MphkFnUnFCBE37njWN6I-8" value="" style="endArrow=none;html=1;rounded=0;" parent="1" source="MphkFnUnFCBE37njWN6I-3" target="MphkFnUnFCBE37njWN6I-1" edge="1">
          <mxGeometry width="50" height="50" relative="1" as="geometry">
            <mxPoint x="690" y="170" as="sourcePoint" />
            <mxPoint x="730" y="170" as="targetPoint" />
          </mxGeometry>
        </mxCell>
        <mxCell id="MphkFnUnFCBE37njWN6I-9" value="" style="endArrow=none;html=1;rounded=0;" parent="1" source="MphkFnUnFCBE37njWN6I-2" target="MphkFnUnFCBE37njWN6I-1" edge="1">
          <mxGeometry width="50" height="50" relative="1" as="geometry">
            <mxPoint x="683.5377446520254" y="140.89976701190824" as="sourcePoint" />
            <mxPoint x="730" y="156.66666666666663" as="targetPoint" />
          </mxGeometry>
        </mxCell>
        <mxCell id="MphkFnUnFCBE37njWN6I-10" value="" style="endArrow=none;html=1;rounded=0;" parent="1" source="MphkFnUnFCBE37njWN6I-5" target="MphkFnUnFCBE37njWN6I-1" edge="1">
          <mxGeometry width="50" height="50" relative="1" as="geometry">
            <mxPoint x="674.0000000000036" y="106.0000000000025" as="sourcePoint" />
            <mxPoint x="740" y="150" as="targetPoint" />
          </mxGeometry>
        </mxCell>
        <mxCell id="MphkFnUnFCBE37njWN6I-11" value="" style="endArrow=classic;html=1;rounded=0;endFill=1;" parent="1" source="MphkFnUnFCBE37njWN6I-1" target="MphkFnUnFCBE37njWN6I-12" edge="1">
          <mxGeometry width="50" height="50" relative="1" as="geometry">
            <mxPoint x="960" y="310" as="sourcePoint" />
            <mxPoint x="1010" y="260" as="targetPoint" />
          </mxGeometry>
        </mxCell>
        <mxCell id="z6kcJXeky-D9c9EvKkV3-50" value="1" style="edgeLabel;html=1;align=center;verticalAlign=middle;resizable=0;points=[];" parent="MphkFnUnFCBE37njWN6I-11" vertex="1" connectable="0">
          <mxGeometry x="-0.9204" y="-1" relative="1" as="geometry">
            <mxPoint x="3" y="4" as="offset" />
          </mxGeometry>
        </mxCell>
        <mxCell id="MphkFnUnFCBE37njWN6I-12" value="has a" style="shape=rhombus;perimeter=rhombusPerimeter;html=1;align=center;" parent="1" vertex="1">
          <mxGeometry x="970" y="135" width="100" height="50" as="geometry" />
        </mxCell>
        <mxCell id="MphkFnUnFCBE37njWN6I-13" value="" style="endArrow=classic;html=1;rounded=0;endFill=1;" parent="1" source="MphkFnUnFCBE37njWN6I-12" target="MphkFnUnFCBE37njWN6I-6" edge="1">
          <mxGeometry relative="1" as="geometry">
            <mxPoint x="1000" y="290" as="sourcePoint" />
            <mxPoint x="1160" y="290" as="targetPoint" />
          </mxGeometry>
        </mxCell>
        <mxCell id="z6kcJXeky-D9c9EvKkV3-51" value="&lt;div&gt;n&lt;/div&gt;" style="edgeLabel;html=1;align=center;verticalAlign=middle;resizable=0;points=[];" parent="MphkFnUnFCBE37njWN6I-13" vertex="1" connectable="0">
          <mxGeometry x="0.7083" y="-2" relative="1" as="geometry">
            <mxPoint y="8" as="offset" />
          </mxGeometry>
        </mxCell>
        <mxCell id="MphkFnUnFCBE37njWN6I-14" value="id" style="ellipse;html=1;align=center;fontStyle=4" parent="1" vertex="1">
          <mxGeometry x="1320" width="80" height="40" as="geometry" />
        </mxCell>
        <mxCell id="MphkFnUnFCBE37njWN6I-16" value="Address text" style="ellipse;html=1;align=center;" parent="1" vertex="1">
          <mxGeometry x="1320" y="40" width="80" height="40" as="geometry" />
        </mxCell>
        <mxCell id="MphkFnUnFCBE37njWN6I-17" value="Pin code" style="ellipse;html=1;align=center;" parent="1" vertex="1">
          <mxGeometry x="1320" y="80" width="80" height="40" as="geometry" />
        </mxCell>
        <mxCell id="MphkFnUnFCBE37njWN6I-20" value="" style="endArrow=none;html=1;rounded=0;" parent="1" source="MphkFnUnFCBE37njWN6I-6" target="MphkFnUnFCBE37njWN6I-14" edge="1">
          <mxGeometry relative="1" as="geometry">
            <mxPoint x="1120" y="260" as="sourcePoint" />
            <mxPoint x="1280" y="260" as="targetPoint" />
          </mxGeometry>
        </mxCell>
        <mxCell id="MphkFnUnFCBE37njWN6I-22" value="" style="endArrow=none;html=1;rounded=0;" parent="1" source="MphkFnUnFCBE37njWN6I-6" target="MphkFnUnFCBE37njWN6I-16" edge="1">
          <mxGeometry relative="1" as="geometry">
            <mxPoint x="1260" y="160" as="sourcePoint" />
            <mxPoint x="1280.2985749985467" y="119.40285000290669" as="targetPoint" />
          </mxGeometry>
        </mxCell>
        <mxCell id="MphkFnUnFCBE37njWN6I-23" value="" style="endArrow=none;html=1;rounded=0;" parent="1" source="MphkFnUnFCBE37njWN6I-6" target="MphkFnUnFCBE37njWN6I-17" edge="1">
          <mxGeometry relative="1" as="geometry">
            <mxPoint x="1270" y="170" as="sourcePoint" />
            <mxPoint x="1290.2985749985467" y="129.4028500029067" as="targetPoint" />
          </mxGeometry>
        </mxCell>
        <mxCell id="MphkFnUnFCBE37njWN6I-26" value="&lt;div&gt;Restaurant&lt;/div&gt;&amp;nbsp;Manager" style="rounded=0;html=1;" parent="1" vertex="1">
          <mxGeometry x="720" y="380" width="80" height="40" as="geometry" />
        </mxCell>
        <mxCell id="MphkFnUnFCBE37njWN6I-28" value="Delivery Person" style="rounded=0;html=1;" parent="1" vertex="1">
          <mxGeometry x="1190" y="380" width="80" height="40" as="geometry" />
        </mxCell>
        <mxCell id="MphkFnUnFCBE37njWN6I-29" value="" style="endArrow=classic;html=1;rounded=0;endFill=1;" parent="1" source="MphkFnUnFCBE37njWN6I-26" target="MphkFnUnFCBE37njWN6I-30" edge="1">
          <mxGeometry width="50" height="50" relative="1" as="geometry">
            <mxPoint x="800" y="350" as="sourcePoint" />
            <mxPoint x="1010" y="450" as="targetPoint" />
          </mxGeometry>
        </mxCell>
        <mxCell id="z6kcJXeky-D9c9EvKkV3-58" value="1" style="edgeLabel;html=1;align=center;verticalAlign=middle;resizable=0;points=[];" parent="MphkFnUnFCBE37njWN6I-29" vertex="1" connectable="0">
          <mxGeometry x="-0.9729" relative="1" as="geometry">
            <mxPoint x="8" y="-10" as="offset" />
          </mxGeometry>
        </mxCell>
        <mxCell id="MphkFnUnFCBE37njWN6I-30" value="&lt;div&gt;assigns&lt;/div&gt;&lt;div&gt;delivery&lt;/div&gt;" style="shape=rhombus;perimeter=rhombusPerimeter;html=1;align=center;" parent="1" vertex="1">
          <mxGeometry x="970" y="375" width="100" height="50" as="geometry" />
        </mxCell>
        <mxCell id="MphkFnUnFCBE37njWN6I-31" value="" style="endArrow=classic;html=1;rounded=0;endFill=1;" parent="1" source="MphkFnUnFCBE37njWN6I-30" target="MphkFnUnFCBE37njWN6I-28" edge="1">
          <mxGeometry relative="1" as="geometry">
            <mxPoint x="1000" y="480" as="sourcePoint" />
            <mxPoint x="1140" y="350" as="targetPoint" />
          </mxGeometry>
        </mxCell>
        <mxCell id="z6kcJXeky-D9c9EvKkV3-59" value="1" style="edgeLabel;html=1;align=center;verticalAlign=middle;resizable=0;points=[];" parent="MphkFnUnFCBE37njWN6I-31" vertex="1" connectable="0">
          <mxGeometry x="0.8045" relative="1" as="geometry">
            <mxPoint x="2" y="-10" as="offset" />
          </mxGeometry>
        </mxCell>
        <mxCell id="MphkFnUnFCBE37njWN6I-32" value="" style="endArrow=none;html=1;rounded=0;startArrow=classic;startFill=1;" parent="1" source="MphkFnUnFCBE37njWN6I-1" target="MphkFnUnFCBE37njWN6I-33" edge="1">
          <mxGeometry width="50" height="50" relative="1" as="geometry">
            <mxPoint x="800" y="235" as="sourcePoint" />
            <mxPoint x="1010" y="335" as="targetPoint" />
          </mxGeometry>
        </mxCell>
        <mxCell id="z6kcJXeky-D9c9EvKkV3-57" value="1" style="edgeLabel;html=1;align=center;verticalAlign=middle;resizable=0;points=[];" parent="MphkFnUnFCBE37njWN6I-32" vertex="1" connectable="0">
          <mxGeometry x="-0.8796" relative="1" as="geometry">
            <mxPoint x="-2" y="7" as="offset" />
          </mxGeometry>
        </mxCell>
        <mxCell id="MphkFnUnFCBE37njWN6I-33" value="delivers order" style="shape=rhombus;perimeter=rhombusPerimeter;html=1;align=center;" parent="1" vertex="1">
          <mxGeometry x="970" y="250" width="100" height="50" as="geometry" />
        </mxCell>
        <mxCell id="MphkFnUnFCBE37njWN6I-34" value="" style="endArrow=none;html=1;rounded=0;startArrow=classic;startFill=1;" parent="1" source="MphkFnUnFCBE37njWN6I-33" target="MphkFnUnFCBE37njWN6I-28" edge="1">
          <mxGeometry relative="1" as="geometry">
            <mxPoint x="1000" y="395" as="sourcePoint" />
            <mxPoint x="1140" y="265" as="targetPoint" />
          </mxGeometry>
        </mxCell>
        <mxCell id="z6kcJXeky-D9c9EvKkV3-56" value="1" style="edgeLabel;html=1;align=center;verticalAlign=middle;resizable=0;points=[];" parent="MphkFnUnFCBE37njWN6I-34" vertex="1" connectable="0">
          <mxGeometry x="0.887" y="1" relative="1" as="geometry">
            <mxPoint x="12" y="-4" as="offset" />
          </mxGeometry>
        </mxCell>
        <mxCell id="MphkFnUnFCBE37njWN6I-35" value="id" style="ellipse;html=1;align=center;fontStyle=4" parent="1" vertex="1">
          <mxGeometry x="1320" y="260" width="80" height="40" as="geometry" />
        </mxCell>
        <mxCell id="MphkFnUnFCBE37njWN6I-36" value="name" style="ellipse;html=1;align=center;" parent="1" vertex="1">
          <mxGeometry x="1320" y="300" width="80" height="40" as="geometry" />
        </mxCell>
        <mxCell id="MphkFnUnFCBE37njWN6I-39" value="" style="endArrow=none;html=1;rounded=0;" parent="1" source="MphkFnUnFCBE37njWN6I-28" target="MphkFnUnFCBE37njWN6I-35" edge="1">
          <mxGeometry relative="1" as="geometry">
            <mxPoint x="1140" y="280" as="sourcePoint" />
            <mxPoint x="1300" y="280" as="targetPoint" />
          </mxGeometry>
        </mxCell>
        <mxCell id="MphkFnUnFCBE37njWN6I-40" value="" style="endArrow=none;html=1;rounded=0;" parent="1" source="MphkFnUnFCBE37njWN6I-28" target="MphkFnUnFCBE37njWN6I-36" edge="1">
          <mxGeometry relative="1" as="geometry">
            <mxPoint x="1280" y="393.33333333333337" as="sourcePoint" />
            <mxPoint x="1325.4488439640638" y="380.0774205104815" as="targetPoint" />
          </mxGeometry>
        </mxCell>
        <mxCell id="MphkFnUnFCBE37njWN6I-42" value="email" style="ellipse;html=1;align=center;" parent="1" vertex="1">
          <mxGeometry x="1320" y="340" width="80" height="40" as="geometry" />
        </mxCell>
        <mxCell id="MphkFnUnFCBE37njWN6I-43" value="password" style="ellipse;html=1;align=center;" parent="1" vertex="1">
          <mxGeometry x="1320" y="380" width="80" height="40" as="geometry" />
        </mxCell>
        <mxCell id="MphkFnUnFCBE37njWN6I-44" value="vehicle id" style="ellipse;html=1;align=center;" parent="1" vertex="1">
          <mxGeometry x="1320" y="420" width="80" height="40" as="geometry" />
        </mxCell>
        <mxCell id="MphkFnUnFCBE37njWN6I-45" value="" style="endArrow=none;html=1;rounded=0;" parent="1" source="MphkFnUnFCBE37njWN6I-28" target="MphkFnUnFCBE37njWN6I-42" edge="1">
          <mxGeometry relative="1" as="geometry">
            <mxPoint x="1220" y="420" as="sourcePoint" />
            <mxPoint x="1380" y="420" as="targetPoint" />
          </mxGeometry>
        </mxCell>
        <mxCell id="MphkFnUnFCBE37njWN6I-46" value="" style="endArrow=none;html=1;rounded=0;" parent="1" source="MphkFnUnFCBE37njWN6I-28" target="MphkFnUnFCBE37njWN6I-43" edge="1">
          <mxGeometry relative="1" as="geometry">
            <mxPoint x="1220" y="420" as="sourcePoint" />
            <mxPoint x="1380" y="420" as="targetPoint" />
          </mxGeometry>
        </mxCell>
        <mxCell id="MphkFnUnFCBE37njWN6I-47" value="" style="endArrow=none;html=1;rounded=0;" parent="1" source="MphkFnUnFCBE37njWN6I-28" target="MphkFnUnFCBE37njWN6I-44" edge="1">
          <mxGeometry relative="1" as="geometry">
            <mxPoint x="1220" y="420" as="sourcePoint" />
            <mxPoint x="1380" y="420" as="targetPoint" />
          </mxGeometry>
        </mxCell>
        <mxCell id="MphkFnUnFCBE37njWN6I-49" value="" style="endArrow=none;html=1;rounded=0;startArrow=classic;startFill=1;" parent="1" target="MphkFnUnFCBE37njWN6I-50" edge="1">
          <mxGeometry width="50" height="50" relative="1" as="geometry">
            <mxPoint x="1230" y="660" as="sourcePoint" />
            <mxPoint x="1330" y="635" as="targetPoint" />
          </mxGeometry>
        </mxCell>
        <mxCell id="z6kcJXeky-D9c9EvKkV3-62" value="1" style="edgeLabel;html=1;align=center;verticalAlign=middle;resizable=0;points=[];" parent="MphkFnUnFCBE37njWN6I-49" vertex="1" connectable="0">
          <mxGeometry x="-0.9333" y="-1" relative="1" as="geometry">
            <mxPoint x="9" y="-6" as="offset" />
          </mxGeometry>
        </mxCell>
        <mxCell id="MphkFnUnFCBE37njWN6I-50" value="drives a" style="shape=rhombus;perimeter=rhombusPerimeter;html=1;align=center;" parent="1" vertex="1">
          <mxGeometry x="1180" y="500" width="100" height="50" as="geometry" />
        </mxCell>
        <mxCell id="MphkFnUnFCBE37njWN6I-51" value="" style="endArrow=none;html=1;rounded=0;startArrow=classic;startFill=1;" parent="1" source="MphkFnUnFCBE37njWN6I-50" target="MphkFnUnFCBE37njWN6I-28" edge="1">
          <mxGeometry relative="1" as="geometry">
            <mxPoint x="1220" y="665" as="sourcePoint" />
            <mxPoint x="1326.3142857142857" y="430" as="targetPoint" />
          </mxGeometry>
        </mxCell>
        <mxCell id="z6kcJXeky-D9c9EvKkV3-60" value="1" style="edgeLabel;html=1;align=center;verticalAlign=middle;resizable=0;points=[];" parent="MphkFnUnFCBE37njWN6I-51" vertex="1" connectable="0">
          <mxGeometry x="0.88" y="1" relative="1" as="geometry">
            <mxPoint x="11" as="offset" />
          </mxGeometry>
        </mxCell>
        <mxCell id="MphkFnUnFCBE37njWN6I-52" value="Vehicle" style="rounded=0;html=1;" parent="1" vertex="1">
          <mxGeometry x="1190" y="660" width="80" height="40" as="geometry" />
        </mxCell>
        <mxCell id="MphkFnUnFCBE37njWN6I-57" value="id" style="ellipse;html=1;align=center;fontStyle=4" parent="1" vertex="1">
          <mxGeometry x="1030" y="740" width="80" height="40" as="geometry" />
        </mxCell>
        <mxCell id="MphkFnUnFCBE37njWN6I-58" value="number plate" style="ellipse;html=1;align=center;" parent="1" vertex="1">
          <mxGeometry x="1110" y="740" width="80" height="40" as="geometry" />
        </mxCell>
        <mxCell id="MphkFnUnFCBE37njWN6I-59" value="make" style="ellipse;html=1;align=center;" parent="1" vertex="1">
          <mxGeometry x="1190" y="740" width="80" height="40" as="geometry" />
        </mxCell>
        <mxCell id="MphkFnUnFCBE37njWN6I-62" value="model" style="ellipse;html=1;align=center;" parent="1" vertex="1">
          <mxGeometry x="1270" y="740" width="80" height="40" as="geometry" />
        </mxCell>
        <mxCell id="MphkFnUnFCBE37njWN6I-63" value="color" style="ellipse;html=1;align=center;" parent="1" vertex="1">
          <mxGeometry x="1350" y="740" width="80" height="40" as="geometry" />
        </mxCell>
        <mxCell id="MphkFnUnFCBE37njWN6I-64" value="" style="endArrow=none;html=1;rounded=0;" parent="1" source="MphkFnUnFCBE37njWN6I-52" target="MphkFnUnFCBE37njWN6I-57" edge="1">
          <mxGeometry relative="1" as="geometry">
            <mxPoint x="1190" y="660" as="sourcePoint" />
            <mxPoint x="1350" y="660" as="targetPoint" />
          </mxGeometry>
        </mxCell>
        <mxCell id="MphkFnUnFCBE37njWN6I-67" value="" style="endArrow=none;html=1;rounded=0;" parent="1" source="MphkFnUnFCBE37njWN6I-52" target="MphkFnUnFCBE37njWN6I-58" edge="1">
          <mxGeometry relative="1" as="geometry">
            <mxPoint x="1240" y="660" as="sourcePoint" />
            <mxPoint x="1400" y="660" as="targetPoint" />
          </mxGeometry>
        </mxCell>
        <mxCell id="MphkFnUnFCBE37njWN6I-68" value="" style="endArrow=none;html=1;rounded=0;" parent="1" source="MphkFnUnFCBE37njWN6I-52" target="MphkFnUnFCBE37njWN6I-59" edge="1">
          <mxGeometry relative="1" as="geometry">
            <mxPoint x="1240" y="660" as="sourcePoint" />
            <mxPoint x="1400" y="660" as="targetPoint" />
          </mxGeometry>
        </mxCell>
        <mxCell id="MphkFnUnFCBE37njWN6I-69" value="" style="endArrow=none;html=1;rounded=0;" parent="1" source="MphkFnUnFCBE37njWN6I-52" target="MphkFnUnFCBE37njWN6I-62" edge="1">
          <mxGeometry relative="1" as="geometry">
            <mxPoint x="1240" y="660" as="sourcePoint" />
            <mxPoint x="1400" y="660" as="targetPoint" />
          </mxGeometry>
        </mxCell>
        <mxCell id="MphkFnUnFCBE37njWN6I-70" value="" style="endArrow=none;html=1;rounded=0;" parent="1" source="MphkFnUnFCBE37njWN6I-52" target="MphkFnUnFCBE37njWN6I-63" edge="1">
          <mxGeometry relative="1" as="geometry">
            <mxPoint x="1240" y="660" as="sourcePoint" />
            <mxPoint x="1400" y="660" as="targetPoint" />
          </mxGeometry>
        </mxCell>
        <mxCell id="MphkFnUnFCBE37njWN6I-71" value="&lt;div style=&quot;font-size: 10px;&quot;&gt;Food Item&lt;/div&gt;&lt;div style=&quot;font-size: 10px;&quot;&gt;(from the menu)&lt;/div&gt;" style="rounded=0;html=1;fontSize=10;" parent="1" vertex="1">
          <mxGeometry x="400" y="660" width="80" height="40" as="geometry" />
        </mxCell>
        <mxCell id="MphkFnUnFCBE37njWN6I-73" value="&lt;div&gt;Orders&lt;/div&gt;" style="rounded=0;html=1;" parent="1" vertex="1">
          <mxGeometry x="400" y="380" width="80" height="40" as="geometry" />
        </mxCell>
        <mxCell id="MphkFnUnFCBE37njWN6I-74" value="" style="endArrow=none;html=1;rounded=0;startArrow=classic;startFill=1;" parent="1" source="MphkFnUnFCBE37njWN6I-94" target="MphkFnUnFCBE37njWN6I-75" edge="1">
          <mxGeometry width="50" height="50" relative="1" as="geometry">
            <mxPoint x="760" y="620" as="sourcePoint" />
            <mxPoint x="860" y="665" as="targetPoint" />
          </mxGeometry>
        </mxCell>
        <mxCell id="z6kcJXeky-D9c9EvKkV3-64" value="1" style="edgeLabel;html=1;align=center;verticalAlign=middle;resizable=0;points=[];" parent="MphkFnUnFCBE37njWN6I-74" vertex="1" connectable="0">
          <mxGeometry x="-0.8201" relative="1" as="geometry">
            <mxPoint x="10" as="offset" />
          </mxGeometry>
        </mxCell>
        <mxCell id="MphkFnUnFCBE37njWN6I-75" value="manages" style="shape=rhombus;perimeter=rhombusPerimeter;html=1;align=center;" parent="1" vertex="1">
          <mxGeometry x="710" y="500" width="100" height="50" as="geometry" />
        </mxCell>
        <mxCell id="MphkFnUnFCBE37njWN6I-76" value="" style="endArrow=none;html=1;rounded=0;startArrow=classic;startFill=1;" parent="1" source="MphkFnUnFCBE37njWN6I-75" target="MphkFnUnFCBE37njWN6I-26" edge="1">
          <mxGeometry relative="1" as="geometry">
            <mxPoint x="750" y="695" as="sourcePoint" />
            <mxPoint x="760" y="430" as="targetPoint" />
          </mxGeometry>
        </mxCell>
        <mxCell id="z6kcJXeky-D9c9EvKkV3-63" value="1" style="edgeLabel;html=1;align=center;verticalAlign=middle;resizable=0;points=[];" parent="MphkFnUnFCBE37njWN6I-76" vertex="1" connectable="0">
          <mxGeometry x="0.9125" relative="1" as="geometry">
            <mxPoint x="10" y="6" as="offset" />
          </mxGeometry>
        </mxCell>
        <mxCell id="MphkFnUnFCBE37njWN6I-80" value="id" style="ellipse;html=1;fontStyle=4" parent="1" vertex="1">
          <mxGeometry x="600" y="340" width="80" height="40" as="geometry" />
        </mxCell>
        <mxCell id="MphkFnUnFCBE37njWN6I-81" value="email" style="ellipse;html=1;" parent="1" vertex="1">
          <mxGeometry x="600" y="420" width="80" height="40" as="geometry" />
        </mxCell>
        <mxCell id="MphkFnUnFCBE37njWN6I-82" value="password" style="ellipse;html=1;" parent="1" vertex="1">
          <mxGeometry x="600" y="460" width="80" height="40" as="geometry" />
        </mxCell>
        <mxCell id="MphkFnUnFCBE37njWN6I-83" value="name" style="ellipse;html=1;" parent="1" vertex="1">
          <mxGeometry x="600" y="300" width="80" height="40" as="geometry" />
        </mxCell>
        <mxCell id="MphkFnUnFCBE37njWN6I-84" value="" style="endArrow=none;html=1;rounded=0;" parent="1" source="MphkFnUnFCBE37njWN6I-82" target="MphkFnUnFCBE37njWN6I-26" edge="1">
          <mxGeometry relative="1" as="geometry">
            <mxPoint x="850" y="280" as="sourcePoint" />
            <mxPoint x="1010" y="280" as="targetPoint" />
          </mxGeometry>
        </mxCell>
        <mxCell id="MphkFnUnFCBE37njWN6I-85" value="" style="endArrow=none;html=1;rounded=0;" parent="1" source="MphkFnUnFCBE37njWN6I-81" target="MphkFnUnFCBE37njWN6I-26" edge="1">
          <mxGeometry relative="1" as="geometry">
            <mxPoint x="850" y="280" as="sourcePoint" />
            <mxPoint x="1010" y="280" as="targetPoint" />
          </mxGeometry>
        </mxCell>
        <mxCell id="MphkFnUnFCBE37njWN6I-86" value="" style="endArrow=none;html=1;rounded=0;" parent="1" source="MphkFnUnFCBE37njWN6I-80" target="MphkFnUnFCBE37njWN6I-26" edge="1">
          <mxGeometry relative="1" as="geometry">
            <mxPoint x="850" y="280" as="sourcePoint" />
            <mxPoint x="1010" y="280" as="targetPoint" />
          </mxGeometry>
        </mxCell>
        <mxCell id="MphkFnUnFCBE37njWN6I-87" value="" style="endArrow=none;html=1;rounded=0;" parent="1" source="MphkFnUnFCBE37njWN6I-83" target="MphkFnUnFCBE37njWN6I-26" edge="1">
          <mxGeometry relative="1" as="geometry">
            <mxPoint x="850" y="280" as="sourcePoint" />
            <mxPoint x="1010" y="280" as="targetPoint" />
          </mxGeometry>
        </mxCell>
        <mxCell id="MphkFnUnFCBE37njWN6I-89" value="food type id" style="ellipse;html=1;align=center;" parent="1" vertex="1">
          <mxGeometry x="200" y="820" width="80" height="40" as="geometry" />
        </mxCell>
        <mxCell id="MphkFnUnFCBE37njWN6I-90" value="id" style="ellipse;html=1;align=center;fontStyle=4" parent="1" vertex="1">
          <mxGeometry x="120" y="820" width="80" height="40" as="geometry" />
        </mxCell>
        <mxCell id="MphkFnUnFCBE37njWN6I-91" value="restaurant_id" style="ellipse;html=1;" parent="1" vertex="1">
          <mxGeometry x="600" y="500" width="80" height="40" as="geometry" />
        </mxCell>
        <mxCell id="MphkFnUnFCBE37njWN6I-92" value="" style="endArrow=none;html=1;rounded=0;" parent="1" source="MphkFnUnFCBE37njWN6I-91" target="MphkFnUnFCBE37njWN6I-26" edge="1">
          <mxGeometry relative="1" as="geometry">
            <mxPoint x="580" y="490" as="sourcePoint" />
            <mxPoint x="740" y="490" as="targetPoint" />
          </mxGeometry>
        </mxCell>
        <mxCell id="MphkFnUnFCBE37njWN6I-93" value="restaurant_id" style="ellipse;html=1;align=center;" parent="1" vertex="1">
          <mxGeometry x="280" y="820" width="80" height="40" as="geometry" />
        </mxCell>
        <mxCell id="MphkFnUnFCBE37njWN6I-94" value="Restaurant" style="rounded=0;html=1;" parent="1" vertex="1">
          <mxGeometry x="720" y="660" width="80" height="40" as="geometry" />
        </mxCell>
        <mxCell id="MphkFnUnFCBE37njWN6I-96" value="" style="endArrow=none;html=1;rounded=0;startArrow=classic;startFill=1;" parent="1" source="MphkFnUnFCBE37njWN6I-71" target="MphkFnUnFCBE37njWN6I-97" edge="1">
          <mxGeometry width="50" height="50" relative="1" as="geometry">
            <mxPoint x="900" y="690" as="sourcePoint" />
            <mxPoint x="1000" y="695" as="targetPoint" />
          </mxGeometry>
        </mxCell>
        <mxCell id="z6kcJXeky-D9c9EvKkV3-66" value="n" style="edgeLabel;html=1;align=center;verticalAlign=middle;resizable=0;points=[];" parent="MphkFnUnFCBE37njWN6I-96" vertex="1" connectable="0">
          <mxGeometry x="-0.8798" relative="1" as="geometry">
            <mxPoint x="5" y="-10" as="offset" />
          </mxGeometry>
        </mxCell>
        <mxCell id="MphkFnUnFCBE37njWN6I-97" value="has a" style="shape=rhombus;perimeter=rhombusPerimeter;html=1;align=center;" parent="1" vertex="1">
          <mxGeometry x="560" y="655" width="100" height="50" as="geometry" />
        </mxCell>
        <mxCell id="MphkFnUnFCBE37njWN6I-98" value="" style="endArrow=none;html=1;rounded=0;startArrow=classic;startFill=1;" parent="1" source="MphkFnUnFCBE37njWN6I-97" target="MphkFnUnFCBE37njWN6I-94" edge="1">
          <mxGeometry relative="1" as="geometry">
            <mxPoint x="640" y="725" as="sourcePoint" />
            <mxPoint x="730" y="740" as="targetPoint" />
          </mxGeometry>
        </mxCell>
        <mxCell id="z6kcJXeky-D9c9EvKkV3-65" value="1" style="edgeLabel;html=1;align=center;verticalAlign=middle;resizable=0;points=[];" parent="MphkFnUnFCBE37njWN6I-98" vertex="1" connectable="0">
          <mxGeometry x="0.8571" relative="1" as="geometry">
            <mxPoint x="-6" y="-10" as="offset" />
          </mxGeometry>
        </mxCell>
        <mxCell id="MphkFnUnFCBE37njWN6I-99" value="id" style="ellipse;html=1;align=center;fontStyle=4" parent="1" vertex="1">
          <mxGeometry x="680" y="740" width="80" height="40" as="geometry" />
        </mxCell>
        <mxCell id="MphkFnUnFCBE37njWN6I-100" value="name" style="ellipse;html=1;align=center;" parent="1" vertex="1">
          <mxGeometry x="760" y="740" width="80" height="40" as="geometry" />
        </mxCell>
        <mxCell id="MphkFnUnFCBE37njWN6I-102" value="Food Type" style="rounded=0;html=1;" parent="1" vertex="1">
          <mxGeometry x="80" y="660" width="80" height="40" as="geometry" />
        </mxCell>
        <mxCell id="MphkFnUnFCBE37njWN6I-103" value="food type name" style="ellipse;html=1;align=center;" parent="1" vertex="1">
          <mxGeometry x="120" y="740" width="80" height="40" as="geometry" />
        </mxCell>
        <mxCell id="MphkFnUnFCBE37njWN6I-104" value="id" style="ellipse;html=1;align=center;fontStyle=4" parent="1" vertex="1">
          <mxGeometry x="40" y="740" width="80" height="40" as="geometry" />
        </mxCell>
        <mxCell id="MphkFnUnFCBE37njWN6I-105" value="" style="endArrow=none;html=1;rounded=0;" parent="1" source="MphkFnUnFCBE37njWN6I-102" target="MphkFnUnFCBE37njWN6I-104" edge="1">
          <mxGeometry relative="1" as="geometry">
            <mxPoint x="230" y="680" as="sourcePoint" />
            <mxPoint x="390" y="680" as="targetPoint" />
          </mxGeometry>
        </mxCell>
        <mxCell id="MphkFnUnFCBE37njWN6I-106" value="" style="endArrow=none;html=1;rounded=0;" parent="1" source="MphkFnUnFCBE37njWN6I-102" target="MphkFnUnFCBE37njWN6I-103" edge="1">
          <mxGeometry relative="1" as="geometry">
            <mxPoint x="230" y="680" as="sourcePoint" />
            <mxPoint x="390" y="680" as="targetPoint" />
          </mxGeometry>
        </mxCell>
        <mxCell id="MphkFnUnFCBE37njWN6I-108" value="" style="endArrow=none;html=1;rounded=0;" parent="1" source="MphkFnUnFCBE37njWN6I-99" target="MphkFnUnFCBE37njWN6I-94" edge="1">
          <mxGeometry relative="1" as="geometry">
            <mxPoint x="500" y="640" as="sourcePoint" />
            <mxPoint x="660" y="640" as="targetPoint" />
          </mxGeometry>
        </mxCell>
        <mxCell id="MphkFnUnFCBE37njWN6I-109" value="" style="endArrow=none;html=1;rounded=0;" parent="1" source="MphkFnUnFCBE37njWN6I-100" target="MphkFnUnFCBE37njWN6I-94" edge="1">
          <mxGeometry relative="1" as="geometry">
            <mxPoint x="500" y="640" as="sourcePoint" />
            <mxPoint x="660" y="640" as="targetPoint" />
          </mxGeometry>
        </mxCell>
        <mxCell id="MphkFnUnFCBE37njWN6I-111" value="name" style="ellipse;html=1;align=center;" parent="1" vertex="1">
          <mxGeometry x="360" y="820" width="80" height="40" as="geometry" />
        </mxCell>
        <mxCell id="MphkFnUnFCBE37njWN6I-112" value="price" style="ellipse;html=1;align=center;" parent="1" vertex="1">
          <mxGeometry x="440" y="820" width="80" height="40" as="geometry" />
        </mxCell>
        <mxCell id="MphkFnUnFCBE37njWN6I-113" value="is_availble" style="ellipse;html=1;align=center;" parent="1" vertex="1">
          <mxGeometry x="520" y="820" width="80" height="40" as="geometry" />
        </mxCell>
        <mxCell id="MphkFnUnFCBE37njWN6I-114" value="" style="endArrow=none;html=1;rounded=0;" parent="1" source="MphkFnUnFCBE37njWN6I-71" target="MphkFnUnFCBE37njWN6I-90" edge="1">
          <mxGeometry relative="1" as="geometry">
            <mxPoint x="440" y="770" as="sourcePoint" />
            <mxPoint x="600" y="770" as="targetPoint" />
          </mxGeometry>
        </mxCell>
        <mxCell id="MphkFnUnFCBE37njWN6I-115" value="" style="endArrow=none;html=1;rounded=0;" parent="1" source="MphkFnUnFCBE37njWN6I-71" target="MphkFnUnFCBE37njWN6I-89" edge="1">
          <mxGeometry relative="1" as="geometry">
            <mxPoint x="440" y="770" as="sourcePoint" />
            <mxPoint x="600" y="770" as="targetPoint" />
          </mxGeometry>
        </mxCell>
        <mxCell id="MphkFnUnFCBE37njWN6I-116" value="" style="endArrow=none;html=1;rounded=0;" parent="1" source="MphkFnUnFCBE37njWN6I-71" target="MphkFnUnFCBE37njWN6I-93" edge="1">
          <mxGeometry relative="1" as="geometry">
            <mxPoint x="440" y="770" as="sourcePoint" />
            <mxPoint x="600" y="770" as="targetPoint" />
          </mxGeometry>
        </mxCell>
        <mxCell id="MphkFnUnFCBE37njWN6I-117" value="" style="endArrow=none;html=1;rounded=0;" parent="1" source="MphkFnUnFCBE37njWN6I-71" target="MphkFnUnFCBE37njWN6I-111" edge="1">
          <mxGeometry relative="1" as="geometry">
            <mxPoint x="440" y="770" as="sourcePoint" />
            <mxPoint x="600" y="770" as="targetPoint" />
          </mxGeometry>
        </mxCell>
        <mxCell id="MphkFnUnFCBE37njWN6I-118" value="" style="endArrow=none;html=1;rounded=0;" parent="1" source="MphkFnUnFCBE37njWN6I-71" target="MphkFnUnFCBE37njWN6I-112" edge="1">
          <mxGeometry relative="1" as="geometry">
            <mxPoint x="440" y="770" as="sourcePoint" />
            <mxPoint x="600" y="770" as="targetPoint" />
          </mxGeometry>
        </mxCell>
        <mxCell id="MphkFnUnFCBE37njWN6I-119" value="" style="endArrow=none;html=1;rounded=0;" parent="1" source="MphkFnUnFCBE37njWN6I-71" target="MphkFnUnFCBE37njWN6I-113" edge="1">
          <mxGeometry relative="1" as="geometry">
            <mxPoint x="440" y="770" as="sourcePoint" />
            <mxPoint x="600" y="770" as="targetPoint" />
          </mxGeometry>
        </mxCell>
        <mxCell id="MphkFnUnFCBE37njWN6I-120" value="" style="endArrow=none;html=1;rounded=0;startArrow=classic;startFill=1;" parent="1" source="MphkFnUnFCBE37njWN6I-102" target="MphkFnUnFCBE37njWN6I-121" edge="1">
          <mxGeometry width="50" height="50" relative="1" as="geometry">
            <mxPoint x="170" y="680" as="sourcePoint" />
            <mxPoint x="690" y="695" as="targetPoint" />
          </mxGeometry>
        </mxCell>
        <mxCell id="z6kcJXeky-D9c9EvKkV3-68" value="1" style="edgeLabel;html=1;align=center;verticalAlign=middle;resizable=0;points=[];" parent="MphkFnUnFCBE37njWN6I-120" vertex="1" connectable="0">
          <mxGeometry x="-0.7033" relative="1" as="geometry">
            <mxPoint y="-10" as="offset" />
          </mxGeometry>
        </mxCell>
        <mxCell id="MphkFnUnFCBE37njWN6I-121" value="has a" style="shape=rhombus;perimeter=rhombusPerimeter;html=1;align=center;" parent="1" vertex="1">
          <mxGeometry x="230" y="655" width="100" height="50" as="geometry" />
        </mxCell>
        <mxCell id="MphkFnUnFCBE37njWN6I-122" value="" style="endArrow=none;html=1;rounded=0;startArrow=classic;startFill=1;" parent="1" source="MphkFnUnFCBE37njWN6I-121" target="MphkFnUnFCBE37njWN6I-71" edge="1">
          <mxGeometry relative="1" as="geometry">
            <mxPoint x="330" y="725" as="sourcePoint" />
            <mxPoint x="410" y="680" as="targetPoint" />
          </mxGeometry>
        </mxCell>
        <mxCell id="z6kcJXeky-D9c9EvKkV3-67" value="n" style="edgeLabel;html=1;align=center;verticalAlign=middle;resizable=0;points=[];" parent="MphkFnUnFCBE37njWN6I-122" vertex="1" connectable="0">
          <mxGeometry x="0.9176" relative="1" as="geometry">
            <mxPoint x="-7" y="-10" as="offset" />
          </mxGeometry>
        </mxCell>
        <mxCell id="MphkFnUnFCBE37njWN6I-124" value="" style="endArrow=none;html=1;rounded=0;startArrow=classic;startFill=1;" parent="1" source="MphkFnUnFCBE37njWN6I-73" target="MphkFnUnFCBE37njWN6I-125" edge="1">
          <mxGeometry width="50" height="50" relative="1" as="geometry">
            <mxPoint x="310" y="525" as="sourcePoint" />
            <mxPoint x="823" y="540" as="targetPoint" />
          </mxGeometry>
        </mxCell>
        <mxCell id="z6kcJXeky-D9c9EvKkV3-70" value="1" style="edgeLabel;html=1;align=center;verticalAlign=middle;resizable=0;points=[];" parent="MphkFnUnFCBE37njWN6I-124" vertex="1" connectable="0">
          <mxGeometry x="-0.8148" y="-1" relative="1" as="geometry">
            <mxPoint x="11" y="2" as="offset" />
          </mxGeometry>
        </mxCell>
        <mxCell id="MphkFnUnFCBE37njWN6I-125" value="form an" style="shape=rhombus;perimeter=rhombusPerimeter;html=1;align=center;" parent="1" vertex="1">
          <mxGeometry x="390" y="510" width="100" height="50" as="geometry" />
        </mxCell>
        <mxCell id="MphkFnUnFCBE37njWN6I-126" value="" style="endArrow=none;html=1;rounded=0;startArrow=classic;startFill=1;" parent="1" source="MphkFnUnFCBE37njWN6I-125" target="MphkFnUnFCBE37njWN6I-71" edge="1">
          <mxGeometry relative="1" as="geometry">
            <mxPoint x="463" y="570" as="sourcePoint" />
            <mxPoint x="500" y="620" as="targetPoint" />
          </mxGeometry>
        </mxCell>
        <mxCell id="z6kcJXeky-D9c9EvKkV3-69" value="n" style="edgeLabel;html=1;align=center;verticalAlign=middle;resizable=0;points=[];" parent="MphkFnUnFCBE37njWN6I-126" vertex="1" connectable="0">
          <mxGeometry x="0.9252" relative="1" as="geometry">
            <mxPoint x="10" y="-6" as="offset" />
          </mxGeometry>
        </mxCell>
        <mxCell id="MphkFnUnFCBE37njWN6I-127" value="id" style="ellipse;html=1;fontStyle=4" parent="1" vertex="1">
          <mxGeometry x="230" y="340" width="80" height="40" as="geometry" />
        </mxCell>
        <mxCell id="MphkFnUnFCBE37njWN6I-131" value="discount" style="ellipse;html=1;" parent="1" vertex="1">
          <mxGeometry x="230" y="380" width="80" height="40" as="geometry" />
        </mxCell>
        <mxCell id="MphkFnUnFCBE37njWN6I-132" value="" style="endArrow=none;html=1;rounded=0;" parent="1" source="MphkFnUnFCBE37njWN6I-127" target="MphkFnUnFCBE37njWN6I-73" edge="1">
          <mxGeometry relative="1" as="geometry">
            <mxPoint x="390" y="440" as="sourcePoint" />
            <mxPoint x="550" y="440" as="targetPoint" />
          </mxGeometry>
        </mxCell>
        <mxCell id="MphkFnUnFCBE37njWN6I-136" value="" style="endArrow=none;html=1;rounded=0;" parent="1" source="MphkFnUnFCBE37njWN6I-131" target="MphkFnUnFCBE37njWN6I-73" edge="1">
          <mxGeometry relative="1" as="geometry">
            <mxPoint x="390" y="440" as="sourcePoint" />
            <mxPoint x="550" y="440" as="targetPoint" />
          </mxGeometry>
        </mxCell>
        <mxCell id="MphkFnUnFCBE37njWN6I-140" value="&lt;div&gt;Order&lt;/div&gt;_item" style="rounded=0;html=1;" parent="1" vertex="1">
          <mxGeometry x="400" y="180" width="80" height="40" as="geometry" />
        </mxCell>
        <mxCell id="MphkFnUnFCBE37njWN6I-141" value="food_item_id" style="ellipse;html=1;" parent="1" vertex="1">
          <mxGeometry x="240" y="160" width="80" height="40" as="geometry" />
        </mxCell>
        <mxCell id="MphkFnUnFCBE37njWN6I-142" value="&lt;div&gt;food_item&lt;/div&gt;&lt;div&gt;_name&lt;/div&gt;" style="ellipse;html=1;" parent="1" vertex="1">
          <mxGeometry x="240" y="200" width="80" height="40" as="geometry" />
        </mxCell>
        <mxCell id="MphkFnUnFCBE37njWN6I-143" value="&lt;div&gt;food_item&lt;/div&gt;&lt;div&gt;_price&lt;br&gt;&lt;/div&gt;" style="ellipse;html=1;" parent="1" vertex="1">
          <mxGeometry x="240" y="240" width="80" height="40" as="geometry" />
        </mxCell>
        <mxCell id="MphkFnUnFCBE37njWN6I-144" value="" style="endArrow=none;html=1;rounded=0;" parent="1" source="MphkFnUnFCBE37njWN6I-141" target="MphkFnUnFCBE37njWN6I-140" edge="1">
          <mxGeometry relative="1" as="geometry">
            <mxPoint x="520" y="330" as="sourcePoint" />
            <mxPoint x="680" y="330" as="targetPoint" />
          </mxGeometry>
        </mxCell>
        <mxCell id="MphkFnUnFCBE37njWN6I-145" value="" style="endArrow=none;html=1;rounded=0;" parent="1" source="MphkFnUnFCBE37njWN6I-142" target="MphkFnUnFCBE37njWN6I-140" edge="1">
          <mxGeometry relative="1" as="geometry">
            <mxPoint x="520" y="330" as="sourcePoint" />
            <mxPoint x="680" y="330" as="targetPoint" />
          </mxGeometry>
        </mxCell>
        <mxCell id="MphkFnUnFCBE37njWN6I-146" value="order_id" style="ellipse;html=1;" parent="1" vertex="1">
          <mxGeometry x="240" y="120" width="80" height="40" as="geometry" />
        </mxCell>
        <mxCell id="MphkFnUnFCBE37njWN6I-148" value="individual_discount" style="ellipse;html=1;" parent="1" vertex="1">
          <mxGeometry x="210" y="280" width="130" height="40" as="geometry" />
        </mxCell>
        <mxCell id="MphkFnUnFCBE37njWN6I-149" value="" style="endArrow=none;html=1;rounded=0;" parent="1" source="MphkFnUnFCBE37njWN6I-143" target="MphkFnUnFCBE37njWN6I-140" edge="1">
          <mxGeometry relative="1" as="geometry">
            <mxPoint x="520" y="330" as="sourcePoint" />
            <mxPoint x="680" y="330" as="targetPoint" />
          </mxGeometry>
        </mxCell>
        <mxCell id="MphkFnUnFCBE37njWN6I-150" value="" style="endArrow=none;html=1;rounded=0;" parent="1" source="MphkFnUnFCBE37njWN6I-148" target="MphkFnUnFCBE37njWN6I-140" edge="1">
          <mxGeometry relative="1" as="geometry">
            <mxPoint x="520" y="330" as="sourcePoint" />
            <mxPoint x="680" y="330" as="targetPoint" />
          </mxGeometry>
        </mxCell>
        <mxCell id="MphkFnUnFCBE37njWN6I-151" value="" style="endArrow=none;html=1;rounded=0;" parent="1" source="MphkFnUnFCBE37njWN6I-146" target="MphkFnUnFCBE37njWN6I-140" edge="1">
          <mxGeometry relative="1" as="geometry">
            <mxPoint x="520" y="330" as="sourcePoint" />
            <mxPoint x="680" y="330" as="targetPoint" />
          </mxGeometry>
        </mxCell>
        <mxCell id="MphkFnUnFCBE37njWN6I-153" value="" style="endArrow=none;html=1;rounded=0;startArrow=classic;startFill=1;" parent="1" source="MphkFnUnFCBE37njWN6I-140" target="MphkFnUnFCBE37njWN6I-154" edge="1">
          <mxGeometry width="50" height="50" relative="1" as="geometry">
            <mxPoint x="540" y="180" as="sourcePoint" />
            <mxPoint x="923" y="300" as="targetPoint" />
          </mxGeometry>
        </mxCell>
        <mxCell id="z6kcJXeky-D9c9EvKkV3-72" value="n" style="edgeLabel;html=1;align=center;verticalAlign=middle;resizable=0;points=[];" parent="MphkFnUnFCBE37njWN6I-153" vertex="1" connectable="0">
          <mxGeometry x="-0.8165" relative="1" as="geometry">
            <mxPoint x="10" y="4" as="offset" />
          </mxGeometry>
        </mxCell>
        <mxCell id="MphkFnUnFCBE37njWN6I-154" value="contains" style="shape=rhombus;perimeter=rhombusPerimeter;html=1;align=center;" parent="1" vertex="1">
          <mxGeometry x="390" y="280" width="100" height="50" as="geometry" />
        </mxCell>
        <mxCell id="MphkFnUnFCBE37njWN6I-155" value="" style="endArrow=none;html=1;rounded=0;startArrow=classic;startFill=1;" parent="1" source="MphkFnUnFCBE37njWN6I-154" target="MphkFnUnFCBE37njWN6I-73" edge="1">
          <mxGeometry relative="1" as="geometry">
            <mxPoint x="563" y="330" as="sourcePoint" />
            <mxPoint x="540" y="420" as="targetPoint" />
          </mxGeometry>
        </mxCell>
        <mxCell id="z6kcJXeky-D9c9EvKkV3-71" value="1" style="edgeLabel;html=1;align=center;verticalAlign=middle;resizable=0;points=[];" parent="MphkFnUnFCBE37njWN6I-155" vertex="1" connectable="0">
          <mxGeometry x="0.8708" relative="1" as="geometry">
            <mxPoint x="10" y="-7" as="offset" />
          </mxGeometry>
        </mxCell>
        <mxCell id="MphkFnUnFCBE37njWN6I-156" value="customer_id" style="ellipse;html=1;" parent="1" vertex="1">
          <mxGeometry x="230" y="420" width="80" height="40" as="geometry" />
        </mxCell>
        <mxCell id="MphkFnUnFCBE37njWN6I-157" value="" style="endArrow=none;html=1;rounded=0;" parent="1" source="MphkFnUnFCBE37njWN6I-156" target="MphkFnUnFCBE37njWN6I-73" edge="1">
          <mxGeometry relative="1" as="geometry">
            <mxPoint x="430" y="380" as="sourcePoint" />
            <mxPoint x="590" y="380" as="targetPoint" />
          </mxGeometry>
        </mxCell>
        <mxCell id="MphkFnUnFCBE37njWN6I-158" value="" style="endArrow=none;html=1;rounded=0;startArrow=classic;startFill=1;" parent="1" source="MphkFnUnFCBE37njWN6I-73" target="MphkFnUnFCBE37njWN6I-159" edge="1">
          <mxGeometry width="50" height="50" relative="1" as="geometry">
            <mxPoint x="560" y="310" as="sourcePoint" />
            <mxPoint x="1043" y="390" as="targetPoint" />
          </mxGeometry>
        </mxCell>
        <mxCell id="MphkFnUnFCBE37njWN6I-159" value="completes" style="shape=rhombus;perimeter=rhombusPerimeter;html=1;align=center;" parent="1" vertex="1">
          <mxGeometry x="510" y="375" width="100" height="50" as="geometry" />
        </mxCell>
        <mxCell id="MphkFnUnFCBE37njWN6I-160" value="" style="endArrow=none;html=1;rounded=0;startArrow=classic;startFill=1;" parent="1" source="MphkFnUnFCBE37njWN6I-159" target="MphkFnUnFCBE37njWN6I-26" edge="1">
          <mxGeometry relative="1" as="geometry">
            <mxPoint x="683" y="420" as="sourcePoint" />
            <mxPoint x="560" y="470" as="targetPoint" />
          </mxGeometry>
        </mxCell>
        <mxCell id="MphkFnUnFCBE37njWN6I-161" value="" style="endArrow=none;html=1;rounded=0;startArrow=classic;startFill=1;" parent="1" source="MphkFnUnFCBE37njWN6I-73" target="MphkFnUnFCBE37njWN6I-162" edge="1">
          <mxGeometry width="50" height="50" relative="1" as="geometry">
            <mxPoint x="530" y="180" as="sourcePoint" />
            <mxPoint x="1013" y="260" as="targetPoint" />
          </mxGeometry>
        </mxCell>
        <mxCell id="MphkFnUnFCBE37njWN6I-162" value="places" style="shape=rhombus;perimeter=rhombusPerimeter;html=1;align=center;" parent="1" vertex="1">
          <mxGeometry x="560" y="230" width="100" height="50" as="geometry" />
        </mxCell>
        <mxCell id="MphkFnUnFCBE37njWN6I-163" value="" style="endArrow=none;html=1;rounded=0;startArrow=classic;startFill=1;" parent="1" source="MphkFnUnFCBE37njWN6I-162" target="MphkFnUnFCBE37njWN6I-1" edge="1">
          <mxGeometry relative="1" as="geometry">
            <mxPoint x="653" y="290" as="sourcePoint" />
            <mxPoint x="530" y="340" as="targetPoint" />
          </mxGeometry>
        </mxCell>
        <mxCell id="CBGs6SxVN57oh6V0yill-2" style="edgeStyle=orthogonalEdgeStyle;rounded=0;orthogonalLoop=1;jettySize=auto;html=1;" parent="1" source="MphkFnUnFCBE37njWN6I-164" target="6r4hHv_tKptC9p7C1SqM-1" edge="1">
          <mxGeometry relative="1" as="geometry" />
        </mxCell>
        <mxCell id="MphkFnUnFCBE37njWN6I-164" value="status" style="ellipse;html=1;" parent="1" vertex="1">
          <mxGeometry x="230" y="500" width="80" height="40" as="geometry" />
        </mxCell>
        <mxCell id="MphkFnUnFCBE37njWN6I-166" value="" style="endArrow=none;html=1;rounded=0;" parent="1" source="MphkFnUnFCBE37njWN6I-164" target="MphkFnUnFCBE37njWN6I-73" edge="1">
          <mxGeometry relative="1" as="geometry">
            <mxPoint x="490" y="450" as="sourcePoint" />
            <mxPoint x="650" y="450" as="targetPoint" />
          </mxGeometry>
        </mxCell>
        <mxCell id="xk-wfnf7dNj0hYwly9Jf-2" value="popularity_&lt;br&gt;rating" style="ellipse;html=1;align=center;" parent="1" vertex="1">
          <mxGeometry x="680" y="820" width="80" height="40" as="geometry" />
        </mxCell>
        <mxCell id="xk-wfnf7dNj0hYwly9Jf-3" value="" style="endArrow=none;html=1;rounded=0;" parent="1" source="MphkFnUnFCBE37njWN6I-71" target="xk-wfnf7dNj0hYwly9Jf-2" edge="1">
          <mxGeometry relative="1" as="geometry">
            <mxPoint x="470" y="710" as="sourcePoint" />
            <mxPoint x="592.1114561800089" y="832.1114561800089" as="targetPoint" />
          </mxGeometry>
        </mxCell>
        <mxCell id="hFHx8pIXMIX-kc4Szl7J-3" value="id" style="ellipse;html=1;fontStyle=4" parent="1" vertex="1">
          <mxGeometry x="240" y="80" width="80" height="40" as="geometry" />
        </mxCell>
        <mxCell id="hFHx8pIXMIX-kc4Szl7J-4" value="" style="endArrow=none;html=1;rounded=0;" parent="1" source="hFHx8pIXMIX-kc4Szl7J-3" target="MphkFnUnFCBE37njWN6I-140" edge="1">
          <mxGeometry relative="1" as="geometry">
            <mxPoint x="322" y="162" as="sourcePoint" />
            <mxPoint x="410" y="195" as="targetPoint" />
          </mxGeometry>
        </mxCell>
        <mxCell id="28XECh3k2V8KZ9A2Tokv-1" value="cart / order items" style="text;html=1;strokeColor=none;fillColor=none;align=center;verticalAlign=middle;whiteSpace=wrap;rounded=0;" parent="1" vertex="1">
          <mxGeometry x="490" y="187.5" width="100" height="30" as="geometry" />
        </mxCell>
        <mxCell id="z6kcJXeky-D9c9EvKkV3-1" value="Food Rating" style="rounded=0;html=1;" parent="1" vertex="1">
          <mxGeometry x="400" y="-40" width="80" height="40" as="geometry" />
        </mxCell>
        <mxCell id="z6kcJXeky-D9c9EvKkV3-2" value="" style="endArrow=none;html=1;rounded=0;startArrow=classic;startFill=1;" parent="1" source="z6kcJXeky-D9c9EvKkV3-1" target="z6kcJXeky-D9c9EvKkV3-3" edge="1">
          <mxGeometry width="50" height="50" relative="1" as="geometry">
            <mxPoint x="359.99827586206885" y="260" as="sourcePoint" />
            <mxPoint x="909.55" y="140" as="targetPoint" />
          </mxGeometry>
        </mxCell>
        <mxCell id="z6kcJXeky-D9c9EvKkV3-75" value="n" style="edgeLabel;html=1;align=center;verticalAlign=middle;resizable=0;points=[];" parent="z6kcJXeky-D9c9EvKkV3-2" vertex="1" connectable="0">
          <mxGeometry x="-0.9079" y="-1" relative="1" as="geometry">
            <mxPoint x="-10" y="4" as="offset" />
          </mxGeometry>
        </mxCell>
        <mxCell id="z6kcJXeky-D9c9EvKkV3-3" value="rates a" style="shape=rhombus;perimeter=rhombusPerimeter;html=1;align=center;" parent="1" vertex="1">
          <mxGeometry x="456.55" y="115" width="100" height="50" as="geometry" />
        </mxCell>
        <mxCell id="z6kcJXeky-D9c9EvKkV3-4" value="" style="endArrow=none;html=1;rounded=0;startArrow=classic;startFill=1;" parent="1" source="z6kcJXeky-D9c9EvKkV3-3" target="MphkFnUnFCBE37njWN6I-1" edge="1">
          <mxGeometry relative="1" as="geometry">
            <mxPoint x="549.55" y="170" as="sourcePoint" />
            <mxPoint x="624.9710526315789" y="60" as="targetPoint" />
          </mxGeometry>
        </mxCell>
        <mxCell id="z6kcJXeky-D9c9EvKkV3-73" value="1" style="edgeLabel;html=1;align=center;verticalAlign=middle;resizable=0;points=[];" parent="z6kcJXeky-D9c9EvKkV3-4" vertex="1" connectable="0">
          <mxGeometry x="0.9618" relative="1" as="geometry">
            <mxPoint x="-7" y="8" as="offset" />
          </mxGeometry>
        </mxCell>
        <mxCell id="z6kcJXeky-D9c9EvKkV3-6" value="food_item_id" style="ellipse;html=1;" parent="1" vertex="1">
          <mxGeometry x="240" y="-40" width="80" height="40" as="geometry" />
        </mxCell>
        <mxCell id="z6kcJXeky-D9c9EvKkV3-7" value="" style="endArrow=none;html=1;rounded=0;" parent="1" source="z6kcJXeky-D9c9EvKkV3-6" target="z6kcJXeky-D9c9EvKkV3-1" edge="1">
          <mxGeometry relative="1" as="geometry">
            <mxPoint x="314.8752857440679" y="85.66221694996852" as="sourcePoint" />
            <mxPoint x="417.9999999999998" y="150" as="targetPoint" />
          </mxGeometry>
        </mxCell>
        <mxCell id="z6kcJXeky-D9c9EvKkV3-8" value="customer_id" style="ellipse;html=1;" parent="1" vertex="1">
          <mxGeometry x="240" y="-80" width="80" height="40" as="geometry" />
        </mxCell>
        <mxCell id="z6kcJXeky-D9c9EvKkV3-9" value="" style="endArrow=none;html=1;rounded=0;" parent="1" source="z6kcJXeky-D9c9EvKkV3-8" target="z6kcJXeky-D9c9EvKkV3-1" edge="1">
          <mxGeometry relative="1" as="geometry">
            <mxPoint x="314.8752857440679" y="45.662216949968524" as="sourcePoint" />
            <mxPoint x="400" y="-15" as="targetPoint" />
          </mxGeometry>
        </mxCell>
        <mxCell id="z6kcJXeky-D9c9EvKkV3-10" value="rating" style="ellipse;html=1;" parent="1" vertex="1">
          <mxGeometry x="240" y="-120" width="80" height="40" as="geometry" />
        </mxCell>
        <mxCell id="z6kcJXeky-D9c9EvKkV3-11" value="" style="endArrow=none;html=1;rounded=0;" parent="1" source="z6kcJXeky-D9c9EvKkV3-10" target="z6kcJXeky-D9c9EvKkV3-1" edge="1">
          <mxGeometry relative="1" as="geometry">
            <mxPoint x="314.8752857440679" y="5.662216949968524" as="sourcePoint" />
            <mxPoint x="400" y="-55" as="targetPoint" />
          </mxGeometry>
        </mxCell>
        <mxCell id="z6kcJXeky-D9c9EvKkV3-12" value="out of 5" style="text;html=1;strokeColor=none;fillColor=none;align=center;verticalAlign=middle;whiteSpace=wrap;rounded=0;" parent="1" vertex="1">
          <mxGeometry x="320" y="-115" width="60" height="30" as="geometry" />
        </mxCell>
        <mxCell id="z6kcJXeky-D9c9EvKkV3-15" value="is_available" style="ellipse;html=1;align=center;" parent="1" vertex="1">
          <mxGeometry x="1320" y="460" width="80" height="40" as="geometry" />
        </mxCell>
        <mxCell id="z6kcJXeky-D9c9EvKkV3-18" value="Delivery&lt;br&gt;Person Rating" style="rounded=0;html=1;" parent="1" vertex="1">
          <mxGeometry x="520" y="-40" width="80" height="40" as="geometry" />
        </mxCell>
        <mxCell id="z6kcJXeky-D9c9EvKkV3-19" value="" style="endArrow=none;html=1;rounded=0;startArrow=classic;startFill=1;" parent="1" source="z6kcJXeky-D9c9EvKkV3-18" target="z6kcJXeky-D9c9EvKkV3-3" edge="1">
          <mxGeometry width="50" height="50" relative="1" as="geometry">
            <mxPoint x="461.0916666666667" y="50" as="sourcePoint" />
            <mxPoint x="505.69532702658626" y="130.42733648670696" as="targetPoint" />
          </mxGeometry>
        </mxCell>
        <mxCell id="z6kcJXeky-D9c9EvKkV3-76" value="n" style="edgeLabel;html=1;align=center;verticalAlign=middle;resizable=0;points=[];" parent="z6kcJXeky-D9c9EvKkV3-19" vertex="1" connectable="0">
          <mxGeometry x="-0.9132" relative="1" as="geometry">
            <mxPoint x="8" y="5" as="offset" />
          </mxGeometry>
        </mxCell>
        <mxCell id="z6kcJXeky-D9c9EvKkV3-20" value="delivery_person_id" style="ellipse;html=1;" parent="1" vertex="1">
          <mxGeometry x="650" y="-40" width="110" height="40" as="geometry" />
        </mxCell>
        <mxCell id="z6kcJXeky-D9c9EvKkV3-21" value="customer_id" style="ellipse;html=1;" parent="1" vertex="1">
          <mxGeometry x="650" y="-80" width="80" height="40" as="geometry" />
        </mxCell>
        <mxCell id="z6kcJXeky-D9c9EvKkV3-22" value="rating" style="ellipse;html=1;" parent="1" vertex="1">
          <mxGeometry x="650" y="-120" width="80" height="40" as="geometry" />
        </mxCell>
        <mxCell id="z6kcJXeky-D9c9EvKkV3-23" value="out of 5" style="text;html=1;strokeColor=none;fillColor=none;align=center;verticalAlign=middle;whiteSpace=wrap;rounded=0;" parent="1" vertex="1">
          <mxGeometry x="730" y="-115" width="60" height="30" as="geometry" />
        </mxCell>
        <mxCell id="z6kcJXeky-D9c9EvKkV3-24" value="" style="endArrow=none;html=1;rounded=0;" parent="1" source="z6kcJXeky-D9c9EvKkV3-18" target="z6kcJXeky-D9c9EvKkV3-22" edge="1">
          <mxGeometry relative="1" as="geometry">
            <mxPoint x="520" y="-130" as="sourcePoint" />
            <mxPoint x="600" y="-130" as="targetPoint" />
          </mxGeometry>
        </mxCell>
        <mxCell id="z6kcJXeky-D9c9EvKkV3-25" value="" style="endArrow=none;html=1;rounded=0;" parent="1" source="z6kcJXeky-D9c9EvKkV3-18" target="z6kcJXeky-D9c9EvKkV3-21" edge="1">
          <mxGeometry relative="1" as="geometry">
            <mxPoint x="530" y="-120" as="sourcePoint" />
            <mxPoint x="610" y="-120" as="targetPoint" />
          </mxGeometry>
        </mxCell>
        <mxCell id="z6kcJXeky-D9c9EvKkV3-26" value="" style="endArrow=none;html=1;rounded=0;" parent="1" source="z6kcJXeky-D9c9EvKkV3-18" target="z6kcJXeky-D9c9EvKkV3-20" edge="1">
          <mxGeometry relative="1" as="geometry">
            <mxPoint x="540" y="-110" as="sourcePoint" />
            <mxPoint x="620" y="-110" as="targetPoint" />
          </mxGeometry>
        </mxCell>
        <mxCell id="z6kcJXeky-D9c9EvKkV3-27" value="" style="endArrow=classic;html=1;rounded=0;endFill=1;" parent="1" source="MphkFnUnFCBE37njWN6I-1" target="z6kcJXeky-D9c9EvKkV3-28" edge="1">
          <mxGeometry width="50" height="50" relative="1" as="geometry">
            <mxPoint x="940" y="25" as="sourcePoint" />
            <mxPoint x="1150" y="125" as="targetPoint" />
          </mxGeometry>
        </mxCell>
        <mxCell id="z6kcJXeky-D9c9EvKkV3-77" value="1" style="edgeLabel;html=1;align=center;verticalAlign=middle;resizable=0;points=[];" parent="z6kcJXeky-D9c9EvKkV3-27" vertex="1" connectable="0">
          <mxGeometry x="-0.949" relative="1" as="geometry">
            <mxPoint x="24" y="2" as="offset" />
          </mxGeometry>
        </mxCell>
        <mxCell id="z6kcJXeky-D9c9EvKkV3-28" value="pays a" style="shape=rhombus;perimeter=rhombusPerimeter;html=1;align=center;" parent="1" vertex="1">
          <mxGeometry x="1020" y="55" width="100" height="50" as="geometry" />
        </mxCell>
        <mxCell id="z6kcJXeky-D9c9EvKkV3-29" value="" style="endArrow=classic;html=1;rounded=0;endFill=1;" parent="1" source="z6kcJXeky-D9c9EvKkV3-28" target="z6kcJXeky-D9c9EvKkV3-30" edge="1">
          <mxGeometry relative="1" as="geometry">
            <mxPoint x="1140" y="155" as="sourcePoint" />
            <mxPoint x="1240" y="20" as="targetPoint" />
          </mxGeometry>
        </mxCell>
        <mxCell id="z6kcJXeky-D9c9EvKkV3-78" value="n" style="edgeLabel;html=1;align=center;verticalAlign=middle;resizable=0;points=[];" parent="z6kcJXeky-D9c9EvKkV3-29" vertex="1" connectable="0">
          <mxGeometry x="0.9076" y="-1" relative="1" as="geometry">
            <mxPoint x="-6" y="9" as="offset" />
          </mxGeometry>
        </mxCell>
        <mxCell id="z6kcJXeky-D9c9EvKkV3-30" value="payment" style="rounded=0;html=1;" parent="1" vertex="1">
          <mxGeometry x="1200" y="-40" width="120" height="40" as="geometry" />
        </mxCell>
        <mxCell id="z6kcJXeky-D9c9EvKkV3-32" value="order_id" style="ellipse;html=1;align=center;" parent="1" vertex="1">
          <mxGeometry x="1080" y="-120" width="80" height="40" as="geometry" />
        </mxCell>
        <mxCell id="z6kcJXeky-D9c9EvKkV3-33" value="id" style="ellipse;html=1;align=center;fontStyle=4" parent="1" vertex="1">
          <mxGeometry x="1040" y="-80" width="120" height="40" as="geometry" />
        </mxCell>
        <mxCell id="z6kcJXeky-D9c9EvKkV3-34" value="" style="endArrow=none;html=1;rounded=0;" parent="1" source="z6kcJXeky-D9c9EvKkV3-33" target="z6kcJXeky-D9c9EvKkV3-30" edge="1">
          <mxGeometry width="50" height="50" relative="1" as="geometry">
            <mxPoint x="1090" y="-20" as="sourcePoint" />
            <mxPoint x="1140" y="-70" as="targetPoint" />
          </mxGeometry>
        </mxCell>
        <mxCell id="z6kcJXeky-D9c9EvKkV3-35" value="" style="endArrow=none;html=1;rounded=0;" parent="1" source="z6kcJXeky-D9c9EvKkV3-30" target="z6kcJXeky-D9c9EvKkV3-32" edge="1">
          <mxGeometry width="50" height="50" relative="1" as="geometry">
            <mxPoint x="1100" y="-10" as="sourcePoint" />
            <mxPoint x="1250" y="-130" as="targetPoint" />
          </mxGeometry>
        </mxCell>
        <mxCell id="z6kcJXeky-D9c9EvKkV3-36" value="payment_status" style="rounded=0;html=1;" parent="1" vertex="1">
          <mxGeometry x="1200" y="-240" width="120" height="40" as="geometry" />
        </mxCell>
        <mxCell id="z6kcJXeky-D9c9EvKkV3-37" value="mode" style="ellipse;html=1;align=center;" parent="1" vertex="1">
          <mxGeometry x="1180" y="-340" width="80" height="40" as="geometry" />
        </mxCell>
        <mxCell id="z6kcJXeky-D9c9EvKkV3-39" value="status" style="ellipse;html=1;align=center;" parent="1" vertex="1">
          <mxGeometry x="1260" y="-340" width="80" height="40" as="geometry" />
        </mxCell>
        <mxCell id="z6kcJXeky-D9c9EvKkV3-40" value="date_time" style="ellipse;html=1;align=center;" parent="1" vertex="1">
          <mxGeometry x="1340" y="-340" width="80" height="40" as="geometry" />
        </mxCell>
        <mxCell id="z6kcJXeky-D9c9EvKkV3-41" value="" style="endArrow=none;html=1;rounded=0;" parent="1" source="z6kcJXeky-D9c9EvKkV3-36" target="mEmtIVpSeIqT6lUs6mAI-8" edge="1">
          <mxGeometry width="50" height="50" relative="1" as="geometry">
            <mxPoint x="1090" y="-80" as="sourcePoint" />
            <mxPoint x="1160.5798302170829" y="-302.8501414857642" as="targetPoint" />
          </mxGeometry>
        </mxCell>
        <mxCell id="z6kcJXeky-D9c9EvKkV3-42" value="" style="endArrow=none;html=1;rounded=0;" parent="1" source="z6kcJXeky-D9c9EvKkV3-36" target="z6kcJXeky-D9c9EvKkV3-37" edge="1">
          <mxGeometry width="50" height="50" relative="1" as="geometry">
            <mxPoint x="1242" y="-230" as="sourcePoint" />
            <mxPoint x="1152.9384937745035" y="-293.61536158964054" as="targetPoint" />
          </mxGeometry>
        </mxCell>
        <mxCell id="z6kcJXeky-D9c9EvKkV3-43" value="" style="endArrow=none;html=1;rounded=0;" parent="1" source="z6kcJXeky-D9c9EvKkV3-36" target="z6kcJXeky-D9c9EvKkV3-39" edge="1">
          <mxGeometry width="50" height="50" relative="1" as="geometry">
            <mxPoint x="1252" y="-220" as="sourcePoint" />
            <mxPoint x="1162.9384937745035" y="-283.61536158964054" as="targetPoint" />
          </mxGeometry>
        </mxCell>
        <mxCell id="z6kcJXeky-D9c9EvKkV3-44" value="" style="endArrow=none;html=1;rounded=0;" parent="1" source="z6kcJXeky-D9c9EvKkV3-36" target="z6kcJXeky-D9c9EvKkV3-40" edge="1">
          <mxGeometry width="50" height="50" relative="1" as="geometry">
            <mxPoint x="1262" y="-210" as="sourcePoint" />
            <mxPoint x="1172.9384937745035" y="-273.61536158964054" as="targetPoint" />
          </mxGeometry>
        </mxCell>
        <mxCell id="z6kcJXeky-D9c9EvKkV3-46" value="" style="endArrow=classic;html=1;rounded=0;endFill=1;" parent="1" source="z6kcJXeky-D9c9EvKkV3-30" target="z6kcJXeky-D9c9EvKkV3-47" edge="1">
          <mxGeometry width="50" height="50" relative="1" as="geometry">
            <mxPoint x="1190" y="-105" as="sourcePoint" />
            <mxPoint x="1400" y="-5" as="targetPoint" />
          </mxGeometry>
        </mxCell>
        <mxCell id="z6kcJXeky-D9c9EvKkV3-79" value="1" style="edgeLabel;html=1;align=center;verticalAlign=middle;resizable=0;points=[];" parent="z6kcJXeky-D9c9EvKkV3-46" vertex="1" connectable="0">
          <mxGeometry x="-0.6" y="-1" relative="1" as="geometry">
            <mxPoint x="9" as="offset" />
          </mxGeometry>
        </mxCell>
        <mxCell id="z6kcJXeky-D9c9EvKkV3-47" value="references" style="shape=rhombus;perimeter=rhombusPerimeter;html=1;align=center;" parent="1" vertex="1">
          <mxGeometry x="1210" y="-155" width="100" height="50" as="geometry" />
        </mxCell>
        <mxCell id="z6kcJXeky-D9c9EvKkV3-48" value="" style="endArrow=classic;html=1;rounded=0;endFill=1;" parent="1" source="z6kcJXeky-D9c9EvKkV3-47" target="z6kcJXeky-D9c9EvKkV3-36" edge="1">
          <mxGeometry relative="1" as="geometry">
            <mxPoint x="1390" y="25" as="sourcePoint" />
            <mxPoint x="1580" y="-105" as="targetPoint" />
          </mxGeometry>
        </mxCell>
        <mxCell id="z6kcJXeky-D9c9EvKkV3-80" value="n" style="edgeLabel;html=1;align=center;verticalAlign=middle;resizable=0;points=[];" parent="z6kcJXeky-D9c9EvKkV3-48" vertex="1" connectable="0">
          <mxGeometry x="0.6972" relative="1" as="geometry">
            <mxPoint x="10" as="offset" />
          </mxGeometry>
        </mxCell>
        <mxCell id="z6kcJXeky-D9c9EvKkV3-81" value="&lt;div&gt;COD&lt;/div&gt;&lt;div&gt;Card&lt;/div&gt;&lt;div&gt;UPI&lt;br&gt;&lt;/div&gt;&lt;div&gt;NetBanking&lt;br&gt;&lt;/div&gt;" style="text;html=1;strokeColor=none;fillColor=none;align=center;verticalAlign=middle;whiteSpace=wrap;rounded=0;" parent="1" vertex="1">
          <mxGeometry x="1180" y="-410" width="80" height="50" as="geometry" />
        </mxCell>
        <mxCell id="z6kcJXeky-D9c9EvKkV3-82" value="&lt;div&gt;Not started&lt;/div&gt;&lt;div&gt;Ongoing&lt;/div&gt;&lt;div&gt;Success&lt;/div&gt;&lt;div&gt;Failed&lt;br&gt;&lt;/div&gt;&lt;div&gt;Error description&lt;br&gt;&lt;/div&gt;" style="text;html=1;strokeColor=none;fillColor=none;align=center;verticalAlign=middle;whiteSpace=wrap;rounded=0;" parent="1" vertex="1">
          <mxGeometry x="1260" y="-430" width="100" height="70" as="geometry" />
        </mxCell>
        <mxCell id="GEWRhIi6NzWPj_lL-UAd-1" value="message" style="ellipse;html=1;" parent="1" vertex="1">
          <mxGeometry x="240" width="80" height="40" as="geometry" />
        </mxCell>
        <mxCell id="GEWRhIi6NzWPj_lL-UAd-2" value="" style="endArrow=none;html=1;rounded=0;" parent="1" source="GEWRhIi6NzWPj_lL-UAd-1" target="z6kcJXeky-D9c9EvKkV3-1" edge="1">
          <mxGeometry relative="1" as="geometry">
            <mxPoint x="330" y="-10" as="sourcePoint" />
            <mxPoint x="410" y="-10" as="targetPoint" />
          </mxGeometry>
        </mxCell>
        <mxCell id="GEWRhIi6NzWPj_lL-UAd-3" value="message" style="ellipse;html=1;" parent="1" vertex="1">
          <mxGeometry x="650" width="80" height="40" as="geometry" />
        </mxCell>
        <mxCell id="GEWRhIi6NzWPj_lL-UAd-4" value="" style="endArrow=none;html=1;rounded=0;" parent="1" source="z6kcJXeky-D9c9EvKkV3-18" target="GEWRhIi6NzWPj_lL-UAd-3" edge="1">
          <mxGeometry relative="1" as="geometry">
            <mxPoint x="610" y="-10" as="sourcePoint" />
            <mxPoint x="660" y="-10" as="targetPoint" />
          </mxGeometry>
        </mxCell>
        <mxCell id="GEWRhIi6NzWPj_lL-UAd-5" value="or cuisine" style="text;html=1;strokeColor=none;fillColor=none;align=center;verticalAlign=middle;whiteSpace=wrap;rounded=0;" parent="1" vertex="1">
          <mxGeometry x="90" y="625" width="60" height="30" as="geometry" />
        </mxCell>
        <mxCell id="De0WTUnxWkmHI9MpidZQ-1" value="is_vegetarian" style="ellipse;html=1;align=center;" parent="1" vertex="1">
          <mxGeometry x="600" y="820" width="80" height="40" as="geometry" />
        </mxCell>
        <mxCell id="De0WTUnxWkmHI9MpidZQ-2" value="" style="endArrow=none;html=1;rounded=0;" parent="1" source="MphkFnUnFCBE37njWN6I-71" target="De0WTUnxWkmHI9MpidZQ-1" edge="1">
          <mxGeometry relative="1" as="geometry">
            <mxPoint x="490" y="710" as="sourcePoint" />
            <mxPoint x="741.7157287525381" y="835.8578643762694" as="targetPoint" />
          </mxGeometry>
        </mxCell>
        <mxCell id="De0WTUnxWkmHI9MpidZQ-3" value="" style="endArrow=none;html=1;rounded=0;" parent="1" source="MphkFnUnFCBE37njWN6I-28" target="z6kcJXeky-D9c9EvKkV3-15" edge="1">
          <mxGeometry relative="1" as="geometry">
            <mxPoint x="1279.9999999999998" y="428.46153846153834" as="sourcePoint" />
            <mxPoint x="1340.6078622149116" y="456.4343979453438" as="targetPoint" />
          </mxGeometry>
        </mxCell>
        <mxCell id="De0WTUnxWkmHI9MpidZQ-4" value="describes if the delivery person is available for delivery" style="text;html=1;strokeColor=none;fillColor=none;align=left;verticalAlign=middle;whiteSpace=wrap;rounded=0;" parent="1" vertex="1">
          <mxGeometry x="1410" y="470" width="160" height="30" as="geometry" />
        </mxCell>
        <mxCell id="De0WTUnxWkmHI9MpidZQ-5" value="lat" style="ellipse;html=1;align=center;" parent="1" vertex="1">
          <mxGeometry x="1320" y="160" width="80" height="40" as="geometry" />
        </mxCell>
        <mxCell id="De0WTUnxWkmHI9MpidZQ-6" value="long" style="ellipse;html=1;align=center;" parent="1" vertex="1">
          <mxGeometry x="1320" y="200" width="80" height="40" as="geometry" />
        </mxCell>
        <mxCell id="De0WTUnxWkmHI9MpidZQ-7" value="" style="endArrow=none;html=1;rounded=0;" parent="1" source="MphkFnUnFCBE37njWN6I-6" target="De0WTUnxWkmHI9MpidZQ-5" edge="1">
          <mxGeometry relative="1" as="geometry">
            <mxPoint x="1280" y="169.0675352278722" as="sourcePoint" />
            <mxPoint x="1320.0201409881993" y="168.13460093669528" as="targetPoint" />
          </mxGeometry>
        </mxCell>
        <mxCell id="De0WTUnxWkmHI9MpidZQ-8" value="" style="endArrow=none;html=1;rounded=0;" parent="1" source="MphkFnUnFCBE37njWN6I-6" target="De0WTUnxWkmHI9MpidZQ-6" edge="1">
          <mxGeometry relative="1" as="geometry">
            <mxPoint x="1280" y="182.54708582601074" as="sourcePoint" />
            <mxPoint x="1325.9893941324858" y="196.97290770767404" as="targetPoint" />
          </mxGeometry>
        </mxCell>
        <mxCell id="uCWmKZGftLplCCM8VmcW-3" value="customer_id" style="ellipse;html=1;align=center;" parent="1" vertex="1">
          <mxGeometry x="1320" y="120" width="80" height="40" as="geometry" />
        </mxCell>
        <mxCell id="uCWmKZGftLplCCM8VmcW-4" value="" style="endArrow=none;html=1;rounded=0;" parent="1" source="MphkFnUnFCBE37njWN6I-6" target="uCWmKZGftLplCCM8VmcW-3" edge="1">
          <mxGeometry relative="1" as="geometry">
            <mxPoint x="1280" y="163.8461538461538" as="sourcePoint" />
            <mxPoint x="1331.7688396511176" y="155.88171697675102" as="targetPoint" />
          </mxGeometry>
        </mxCell>
        <mxCell id="mEmtIVpSeIqT6lUs6mAI-1" value="RC No, License, PUC" style="text;html=1;strokeColor=none;fillColor=none;align=center;verticalAlign=middle;whiteSpace=wrap;rounded=0;" parent="1" vertex="1">
          <mxGeometry x="1450" y="745" width="170" height="30" as="geometry" />
        </mxCell>
        <mxCell id="mEmtIVpSeIqT6lUs6mAI-2" value="restaurant_id" style="ellipse;html=1;" parent="1" vertex="1">
          <mxGeometry x="230" y="460" width="80" height="40" as="geometry" />
        </mxCell>
        <mxCell id="mEmtIVpSeIqT6lUs6mAI-3" value="" style="endArrow=none;html=1;rounded=0;" parent="1" source="mEmtIVpSeIqT6lUs6mAI-2" target="MphkFnUnFCBE37njWN6I-73" edge="1">
          <mxGeometry width="50" height="50" relative="1" as="geometry">
            <mxPoint x="470" y="590" as="sourcePoint" />
            <mxPoint x="520" y="540" as="targetPoint" />
          </mxGeometry>
        </mxCell>
        <mxCell id="mEmtIVpSeIqT6lUs6mAI-4" value="rating" style="ellipse;html=1;align=center;" parent="1" vertex="1">
          <mxGeometry x="1320" y="500" width="80" height="40" as="geometry" />
        </mxCell>
        <mxCell id="mEmtIVpSeIqT6lUs6mAI-5" value="" style="endArrow=none;html=1;rounded=0;" parent="1" source="MphkFnUnFCBE37njWN6I-28" target="mEmtIVpSeIqT6lUs6mAI-4" edge="1">
          <mxGeometry relative="1" as="geometry">
            <mxPoint x="1266.0149391410655" y="430.0000000000002" as="sourcePoint" />
            <mxPoint x="1348.2441818300576" y="493.2169402689017" as="targetPoint" />
          </mxGeometry>
        </mxCell>
        <mxCell id="mEmtIVpSeIqT6lUs6mAI-6" value="id" style="ellipse;html=1;align=center;fontStyle=4" parent="1" vertex="1">
          <mxGeometry x="1020" y="-340" width="80" height="40" as="geometry" />
        </mxCell>
        <mxCell id="mEmtIVpSeIqT6lUs6mAI-7" value="" style="endArrow=none;html=1;rounded=0;" parent="1" source="z6kcJXeky-D9c9EvKkV3-36" target="mEmtIVpSeIqT6lUs6mAI-6" edge="1">
          <mxGeometry width="50" height="50" relative="1" as="geometry">
            <mxPoint x="1190" y="-260" as="sourcePoint" />
            <mxPoint x="1240" y="-310" as="targetPoint" />
          </mxGeometry>
        </mxCell>
        <mxCell id="mEmtIVpSeIqT6lUs6mAI-8" value="payment_id" style="ellipse;html=1;align=center;" parent="1" vertex="1">
          <mxGeometry x="1100" y="-340" width="80" height="40" as="geometry" />
        </mxCell>
        <mxCell id="mEmtIVpSeIqT6lUs6mAI-9" value="customer_id" style="ellipse;html=1;align=center;fontStyle=0" parent="1" vertex="1">
          <mxGeometry x="1040" y="-40" width="120" height="40" as="geometry" />
        </mxCell>
        <mxCell id="mEmtIVpSeIqT6lUs6mAI-10" value="" style="endArrow=none;html=1;rounded=0;" parent="1" source="mEmtIVpSeIqT6lUs6mAI-9" target="z6kcJXeky-D9c9EvKkV3-30" edge="1">
          <mxGeometry width="50" height="50" relative="1" as="geometry">
            <mxPoint x="1158.2964126756947" y="-38.13288145682941" as="sourcePoint" />
            <mxPoint x="1210" y="-25" as="targetPoint" />
          </mxGeometry>
        </mxCell>
        <mxCell id="6r4hHv_tKptC9p7C1SqM-1" value="&lt;div&gt;arrived&lt;/div&gt;&lt;div&gt;preparing&lt;/div&gt;&lt;div&gt;out for delivery&lt;/div&gt;&lt;div&gt;delivered&lt;br&gt;&lt;/div&gt;" style="text;html=1;strokeColor=default;fillColor=none;align=center;verticalAlign=middle;whiteSpace=wrap;rounded=0;" parent="1" vertex="1">
          <mxGeometry x="80" y="450" width="110" height="100" as="geometry" />
        </mxCell>
        <mxCell id="CBGs6SxVN57oh6V0yill-1" value="assigned_to_delivery_person_id" style="ellipse;html=1;" parent="1" vertex="1">
          <mxGeometry x="230" y="540" width="80" height="40" as="geometry" />
        </mxCell>
        <mxCell id="CBGs6SxVN57oh6V0yill-3" value="deliver_to_address_id" style="ellipse;html=1;" parent="1" vertex="1">
          <mxGeometry x="230" y="580" width="80" height="40" as="geometry" />
        </mxCell>
        <mxCell id="CBGs6SxVN57oh6V0yill-4" value="" style="endArrow=none;html=1;rounded=0;" parent="1" source="CBGs6SxVN57oh6V0yill-1" target="MphkFnUnFCBE37njWN6I-73" edge="1">
          <mxGeometry width="50" height="50" relative="1" as="geometry">
            <mxPoint x="350" y="520" as="sourcePoint" />
            <mxPoint x="400" y="470" as="targetPoint" />
          </mxGeometry>
        </mxCell>
        <mxCell id="CBGs6SxVN57oh6V0yill-5" value="" style="endArrow=none;html=1;rounded=0;" parent="1" source="CBGs6SxVN57oh6V0yill-3" target="MphkFnUnFCBE37njWN6I-73" edge="1">
          <mxGeometry width="50" height="50" relative="1" as="geometry">
            <mxPoint x="360" y="530" as="sourcePoint" />
            <mxPoint x="435" y="430" as="targetPoint" />
          </mxGeometry>
        </mxCell>
        <mxCell id="pXTTfo4M1xhZ1maYyybZ-5" value="Address text" style="ellipse;html=1;align=center;" parent="1" vertex="1">
          <mxGeometry x="1320" y="540" width="80" height="40" as="geometry" />
        </mxCell>
        <mxCell id="pXTTfo4M1xhZ1maYyybZ-6" value="Pin code" style="ellipse;html=1;align=center;" parent="1" vertex="1">
          <mxGeometry x="1320" y="580" width="80" height="40" as="geometry" />
        </mxCell>
        <mxCell id="pXTTfo4M1xhZ1maYyybZ-7" value="lat" style="ellipse;html=1;align=center;" parent="1" vertex="1">
          <mxGeometry x="1320" y="620" width="80" height="40" as="geometry" />
        </mxCell>
        <mxCell id="pXTTfo4M1xhZ1maYyybZ-8" value="long" style="ellipse;html=1;align=center;" parent="1" vertex="1">
          <mxGeometry x="1320" y="660" width="80" height="40" as="geometry" />
        </mxCell>
        <mxCell id="pXTTfo4M1xhZ1maYyybZ-9" value="" style="endArrow=none;html=1;rounded=0;" parent="1" source="MphkFnUnFCBE37njWN6I-28" target="pXTTfo4M1xhZ1maYyybZ-5" edge="1">
          <mxGeometry relative="1" as="geometry">
            <mxPoint x="1258.5714285714284" y="430" as="sourcePoint" />
            <mxPoint x="1353.1555477418342" y="531.8598206450522" as="targetPoint" />
          </mxGeometry>
        </mxCell>
        <mxCell id="pXTTfo4M1xhZ1maYyybZ-10" value="" style="endArrow=none;html=1;rounded=0;" parent="1" source="MphkFnUnFCBE37njWN6I-28" target="pXTTfo4M1xhZ1maYyybZ-6" edge="1">
          <mxGeometry relative="1" as="geometry">
            <mxPoint x="1254.4444444444443" y="430" as="sourcePoint" />
            <mxPoint x="1356.4142214488948" y="571.1889220061626" as="targetPoint" />
          </mxGeometry>
        </mxCell>
        <mxCell id="pXTTfo4M1xhZ1maYyybZ-11" value="" style="endArrow=none;html=1;rounded=0;" parent="1" source="MphkFnUnFCBE37njWN6I-28" target="pXTTfo4M1xhZ1maYyybZ-7" edge="1">
          <mxGeometry relative="1" as="geometry">
            <mxPoint x="1251.8181818181815" y="430" as="sourcePoint" />
            <mxPoint x="1358.66615435933" y="610.8196458388661" as="targetPoint" />
          </mxGeometry>
        </mxCell>
        <mxCell id="pXTTfo4M1xhZ1maYyybZ-12" value="" style="endArrow=none;html=1;rounded=0;" parent="1" source="MphkFnUnFCBE37njWN6I-28" target="pXTTfo4M1xhZ1maYyybZ-8" edge="1">
          <mxGeometry relative="1" as="geometry">
            <mxPoint x="1250" y="430" as="sourcePoint" />
            <mxPoint x="1360.2985749985096" y="650.5971499970196" as="targetPoint" />
          </mxGeometry>
        </mxCell>
        <mxCell id="pXTTfo4M1xhZ1maYyybZ-13" value="Address text" style="ellipse;html=1;align=center;" parent="1" vertex="1">
          <mxGeometry x="800" y="300" width="80" height="40" as="geometry" />
        </mxCell>
        <mxCell id="pXTTfo4M1xhZ1maYyybZ-14" value="Pin code" style="ellipse;html=1;align=center;" parent="1" vertex="1">
          <mxGeometry x="800" y="340" width="80" height="40" as="geometry" />
        </mxCell>
        <mxCell id="pXTTfo4M1xhZ1maYyybZ-15" value="lat" style="ellipse;html=1;align=center;" parent="1" vertex="1">
          <mxGeometry x="800" y="430" width="80" height="40" as="geometry" />
        </mxCell>
        <mxCell id="pXTTfo4M1xhZ1maYyybZ-16" value="long" style="ellipse;html=1;align=center;" parent="1" vertex="1">
          <mxGeometry x="800" y="470" width="80" height="40" as="geometry" />
        </mxCell>
        <mxCell id="pXTTfo4M1xhZ1maYyybZ-17" value="" style="endArrow=none;html=1;rounded=0;" parent="1" source="pXTTfo4M1xhZ1maYyybZ-13" target="MphkFnUnFCBE37njWN6I-26" edge="1">
          <mxGeometry relative="1" as="geometry">
            <mxPoint x="673.9256032796372" y="346.02783132325226" as="sourcePoint" />
            <mxPoint x="740" y="390" as="targetPoint" />
          </mxGeometry>
        </mxCell>
        <mxCell id="pXTTfo4M1xhZ1maYyybZ-18" value="" style="endArrow=none;html=1;rounded=0;" parent="1" source="pXTTfo4M1xhZ1maYyybZ-14" target="MphkFnUnFCBE37njWN6I-26" edge="1">
          <mxGeometry relative="1" as="geometry">
            <mxPoint x="832.111456180025" y="347.88854381997544" as="sourcePoint" />
            <mxPoint x="780" y="390" as="targetPoint" />
          </mxGeometry>
        </mxCell>
        <mxCell id="pXTTfo4M1xhZ1maYyybZ-19" value="" style="endArrow=none;html=1;rounded=0;" parent="1" source="pXTTfo4M1xhZ1maYyybZ-15" target="MphkFnUnFCBE37njWN6I-26" edge="1">
          <mxGeometry relative="1" as="geometry">
            <mxPoint x="821.5100331711433" y="384.03853437943644" as="sourcePoint" />
            <mxPoint x="790" y="400" as="targetPoint" />
          </mxGeometry>
        </mxCell>
        <mxCell id="pXTTfo4M1xhZ1maYyybZ-20" value="" style="endArrow=none;html=1;rounded=0;" parent="1" source="pXTTfo4M1xhZ1maYyybZ-16" target="MphkFnUnFCBE37njWN6I-26" edge="1">
          <mxGeometry relative="1" as="geometry">
            <mxPoint x="824.845230022765" y="444.4497785595272" as="sourcePoint" />
            <mxPoint x="802" y="430" as="targetPoint" />
          </mxGeometry>
        </mxCell>
        <mxCell id="pXTTfo4M1xhZ1maYyybZ-21" value="Address text" style="ellipse;html=1;align=center;" parent="1" vertex="1">
          <mxGeometry x="860" y="570" width="80" height="40" as="geometry" />
        </mxCell>
        <mxCell id="pXTTfo4M1xhZ1maYyybZ-22" value="Pin code" style="ellipse;html=1;align=center;" parent="1" vertex="1">
          <mxGeometry x="860" y="610" width="80" height="40" as="geometry" />
        </mxCell>
        <mxCell id="pXTTfo4M1xhZ1maYyybZ-23" value="lat" style="ellipse;html=1;align=center;" parent="1" vertex="1">
          <mxGeometry x="860" y="650" width="80" height="40" as="geometry" />
        </mxCell>
        <mxCell id="pXTTfo4M1xhZ1maYyybZ-24" value="long" style="ellipse;html=1;align=center;" parent="1" vertex="1">
          <mxGeometry x="860" y="690" width="80" height="40" as="geometry" />
        </mxCell>
        <mxCell id="pXTTfo4M1xhZ1maYyybZ-25" value="" style="endArrow=none;html=1;rounded=0;" parent="1" source="pXTTfo4M1xhZ1maYyybZ-21" target="MphkFnUnFCBE37njWN6I-94" edge="1">
          <mxGeometry relative="1" as="geometry">
            <mxPoint x="833.7756662113138" y="481.7190605197902" as="sourcePoint" />
            <mxPoint x="787.7777777777776" y="430" as="targetPoint" />
          </mxGeometry>
        </mxCell>
        <mxCell id="pXTTfo4M1xhZ1maYyybZ-26" value="" style="endArrow=none;html=1;rounded=0;" parent="1" source="pXTTfo4M1xhZ1maYyybZ-22" target="MphkFnUnFCBE37njWN6I-94" edge="1">
          <mxGeometry relative="1" as="geometry">
            <mxPoint x="888.5355834637817" y="596.8766023147364" as="sourcePoint" />
            <mxPoint x="795.4545454545455" y="670" as="targetPoint" />
          </mxGeometry>
        </mxCell>
        <mxCell id="pXTTfo4M1xhZ1maYyybZ-27" value="" style="endArrow=none;html=1;rounded=0;" parent="1" source="pXTTfo4M1xhZ1maYyybZ-23" target="MphkFnUnFCBE37njWN6I-94" edge="1">
          <mxGeometry relative="1" as="geometry">
            <mxPoint x="881.592487501845" y="634.0802453251727" as="sourcePoint" />
            <mxPoint x="810" y="670" as="targetPoint" />
          </mxGeometry>
        </mxCell>
        <mxCell id="pXTTfo4M1xhZ1maYyybZ-28" value="" style="endArrow=none;html=1;rounded=0;" parent="1" source="pXTTfo4M1xhZ1maYyybZ-24" target="MphkFnUnFCBE37njWN6I-94" edge="1">
          <mxGeometry relative="1" as="geometry">
            <mxPoint x="871.4640882761969" y="704.6384818471229" as="sourcePoint" />
            <mxPoint x="810" y="695.7142857142858" as="targetPoint" />
          </mxGeometry>
        </mxCell>
      </root>
    </mxGraphModel>
  </diagram>
</mxfile>
